<?xml version="1.0" standalone="no"?><!DOCTYPE svg PUBLIC "-//W3C//DTD SVG 1.1//EN"
  "http://www.w3.org/Graphics/SVG/1.1/DTD/svg11.dtd">
<svg t="1579693147592" class="icon" viewBox="0 0 1024 1024" version="1.1" xmlns="http://www.w3.org/2000/svg"
     p-id="31065" xmlns:xlink="http://www.w3.org/1999/xlink" width="200" height="200">
  <defs>
    <style type="text/css"></style>
  </defs>
  <path d="M476.8 270.8L161.1 686.2h207.7l108-135z" fill="#FFCF48" p-id="31066"></path>
  <path
    d="M576.5 686.2h282.4L510 187.8v321.9l-33.2 41.5-108 135h174.4v33.2H161.1l74 91.9c3-0.3 6-0.5 9-0.5 21.2 0 40.6 8 55.2 21.1 6.4 5.8 16 5.8 22.5 0 14.7-13.1 34-21.1 55.2-21.1s40.6 8 55.2 21.1c6.4 5.8 16 5.8 22.5 0 14.7-13.1 34-21.1 55.2-21.1s40.6 8 55.2 21.1c6.4 5.8 16 5.8 22.5 0 14.7-13.1 34-21.1 55.2-21.1s40.6 8 55.2 21.1c6.4 5.8 16 5.8 22.5 0 14.7-13.1 34-21.1 55.2-21.1 3.1 0 6.1 0.2 9 0.5l74-91.9H576.5v-33.2z"
    fill="#49A0E8" p-id="31067"></path>
</svg>
