<?xml version="1.0" standalone="no"?><!DOCTYPE svg PUBLIC "-//W3C//DTD SVG 1.1//EN" "http://www.w3.org/Graphics/SVG/1.1/DTD/svg11.dtd"><svg t="1581079807167" class="icon" viewBox="0 0 1024 1024" version="1.1" xmlns="http://www.w3.org/2000/svg" p-id="5335" xmlns:xlink="http://www.w3.org/1999/xlink" width="200" height="200"><defs><style type="text/css"></style></defs><path d="M805.055308 165.31325A343.29757 343.29757 0 0 0 524.671069 0h-29.467602a334.38362 334.38362 0 0 0-262.335332 144.096577 348.380731 348.380731 0 0 0-47.074496 303.737313 322.52291 322.52291 0 0 0 22.100702 51.568305l260.640945 498.96018a45.23277 45.23277 0 0 0 41.033637 25.636815 45.23277 45.23277 0 0 0 40.959967-25.710484l270.586261-517.377432 0.589352-1.105035a327.827079 327.827079 0 0 0-16.649195-314.492989zM511.778993 469.050564a125.237311 125.237311 0 1 1 125.237311-125.237311 125.237311 125.237311 0 0 1-125.237311 125.237311z" fill="#ffffff" p-id="5336"></path></svg>