<?xml version="1.0" standalone="no"?><!DOCTYPE svg PUBLIC "-//W3C//DTD SVG 1.1//EN" "http://www.w3.org/Graphics/SVG/1.1/DTD/svg11.dtd"><svg t="1581145116316" class="icon" viewBox="0 0 1024 1024" version="1.1" xmlns="http://www.w3.org/2000/svg" p-id="10072" xmlns:xlink="http://www.w3.org/1999/xlink" width="200" height="200"><defs><style type="text/css"></style></defs><path d="M890.175 510.476c-3.608 209.441-169.818 375.647-379.258 379.254-209.452 3.608-375.736-175.244-379.25-379.254-3.607-209.452 175.24-375.74 379.25-379.254 209.456-3.608 375.744 175.24 379.258 379.254 0.683 39.616 62.184 39.681 61.5 0C947.747 282.367 779.11 99.223 553.72 71.928 327.607 44.547 119.133 213.131 77.33 431.658 34.671 654.637 177.98 870.915 391.534 934.87c218.948 65.57 446.011-61.138 530.682-266.08 20.6-49.863 28.536-104.69 29.459-158.315 0.683-39.68-60.818-39.614-61.5 0.001z" p-id="10073" fill="#8a8a8a"></path><path d="M506.967 675.328L650.08 532.22c11.847-11.847 11.847-31.641 0-43.488l-143.112-143.11c-28.067-28.067-71.554 15.42-43.487 43.487L606.59 532.22v-43.487L463.48 631.84c-28.067 28.068 15.42 71.555 43.487 43.488z" p-id="10074" fill="#8a8a8a"></path></svg>