<?xml version="1.0" standalone="no"?><!DOCTYPE svg PUBLIC "-//W3C//DTD SVG 1.1//EN" "http://www.w3.org/Graphics/SVG/1.1/DTD/svg11.dtd"><svg t="1581131305237" class="icon" viewBox="0 0 1024 1024" version="1.1" xmlns="http://www.w3.org/2000/svg" p-id="6597" xmlns:xlink="http://www.w3.org/1999/xlink" width="200" height="200"><defs><style type="text/css"></style></defs><path d="M903.4 120.8H121c-30.9 0-55.9 25-55.9 55.9v475c0 30.9 25 55.9 55.9 55.9h111.8v195.6l43.9-1.5 162.9-194.1h463.8c30.9 0 55.9-25 55.9-55.9v-475c0-30.9-25-55.9-55.9-55.9zM288.7 456.1c-30.9 0-55.9-25-55.9-55.9s25-55.9 55.9-55.9 55.9 25 55.9 55.9-25 55.9-55.9 55.9z m223.5 0c-30.9 0-55.9-25-55.9-55.9s25-55.9 55.9-55.9 55.9 25 55.9 55.9-25 55.9-55.9 55.9z m223.6 0c-30.9 0-55.9-25-55.9-55.9s25-55.9 55.9-55.9 55.9 25 55.9 55.9-25 55.9-55.9 55.9z" fill="#8a8a8a" p-id="6598"></path></svg>