<?xml version="1.0" standalone="no"?><!DOCTYPE svg PUBLIC "-//W3C//DTD SVG 1.1//EN" "http://www.w3.org/Graphics/SVG/1.1/DTD/svg11.dtd"><svg t="1580972291410" class="icon" viewBox="0 0 1024 1024" version="1.1" xmlns="http://www.w3.org/2000/svg" p-id="5990" xmlns:xlink="http://www.w3.org/1999/xlink" width="200" height="200"><defs><style type="text/css"></style></defs><path d="M513.428837 107.162791c126.666419 0 229.721302 100.268651 229.721303 223.50586s-117.87907 352.910884-230.447628 454.084465c-108.829767-89.302326-228.994977-256.666791-228.994977-454.084465C283.707535 207.467163 386.750512 107.162791 513.428837 107.162791m0-47.627907a274.31293 274.31293 0 0 0-277.349209 271.169488c0 215.611535 134.060651 405.551628 262.394046 503.593675a24.45693 24.45693 0 0 0 14.848 5.060465 23.694884 23.694884 0 0 0 14.895628-5.23907c128.381023-103.090605 262.560744-360.376558 262.560745-503.41507A274.31293 274.31293 0 0 0 513.428837 59.534884zM512 964.465116C275.313116 964.465116 35.72093 912.419721 35.72093 812.960744c0-81.717581 154.254884-119.069767 246.212465-134.108279a23.813953 23.813953 0 0 1 7.68 47.032558C139.311628 750.401488 83.348837 792.30214 83.348837 812.960744 83.348837 849.193674 230.566698 916.837209 512 916.837209s428.651163-67.607814 428.651163-103.852651c0-20.646698-55.962791-62.547349-206.252651-87.075721a23.813953 23.813953 0 0 1 7.68-47.032558C834.024186 693.855256 988.27907 731.231256 988.27907 812.960744 988.27907 912.419721 748.686884 964.465116 512 964.465116z" fill="#3751F9" p-id="5991"></path><path d="M511.916651 464.50307a46.86586 46.86586 0 0 1-33.256186-13.681117L354.244465 327.44186a23.15907 23.15907 0 0 1 0-32.958511 23.635349 23.635349 0 0 1 33.244279 0l124.427907 123.380093 124.427907-123.380093a23.635349 23.635349 0 0 1 33.244279 0 23.15907 23.15907 0 0 1 0 32.958511l-124.427907 123.392a46.901581 46.901581 0 0 1-33.244279 13.66921z" fill="#E9611E" p-id="5992"></path></svg>